<?xml version="1.0" encoding="UTF-8" standalone="no"?>
<!DOCTYPE svg PUBLIC "-//W3C//DTD SVG 1.1//EN" "http://www.w3.org/Graphics/SVG/1.1/DTD/svg11.dtd">
<svg width="100%" height="100%" viewBox="0 0 4678 3308" version="1.1" xmlns="http://www.w3.org/2000/svg" xmlns:xlink="http://www.w3.org/1999/xlink" xml:space="preserve" xmlns:serif="http://www.serif.com/" style="fill-rule:evenodd;clip-rule:evenodd;stroke-linejoin:round;stroke-miterlimit:2;">
    <g transform="matrix(1.33333,0,0,1.33333,0,0)">
        <g transform="matrix(1,0,0,1,444.437,1528)">
            <g transform="matrix(1500,0,0,1500,0,0)">
                <path d="M0.428,-0L0.428,-0.182L0.522,-0.182L0.522,-0.267L0.428,-0.267L0.428,-0.72L0.322,-0.73L0.02,-0.232L0.02,-0.182L0.328,-0.182L0.328,-0L0.428,-0ZM0.329,-0.572L0.328,-0.267L0.139,-0.266L0.329,-0.572Z" style="fill-rule:nonzero;"/>
            </g>
            <g transform="matrix(1500,0,0,1500,825,0)">
                <path d="M0.327,0.018C0.426,0.018 0.501,-0.021 0.55,-0.092C0.597,-0.157 0.621,-0.25 0.621,-0.355C0.621,-0.458 0.6,-0.549 0.555,-0.616C0.503,-0.691 0.427,-0.729 0.327,-0.729C0.232,-0.729 0.158,-0.689 0.107,-0.62C0.059,-0.553 0.033,-0.459 0.033,-0.352C0.033,-0.248 0.056,-0.157 0.103,-0.092C0.155,-0.019 0.23,0.018 0.327,0.018ZM0.327,-0.072C0.263,-0.072 0.214,-0.1 0.18,-0.157C0.15,-0.205 0.135,-0.27 0.135,-0.353C0.135,-0.43 0.151,-0.502 0.182,-0.554C0.214,-0.607 0.263,-0.639 0.326,-0.639C0.392,-0.639 0.442,-0.61 0.476,-0.551C0.505,-0.501 0.52,-0.436 0.52,-0.355C0.52,-0.278 0.504,-0.206 0.473,-0.157C0.44,-0.104 0.39,-0.072 0.327,-0.072Z" style="fill-rule:nonzero;"/>
            </g>
            <g transform="matrix(1500,0,0,1500,1806,0)">
                <path d="M0.428,-0L0.428,-0.182L0.522,-0.182L0.522,-0.267L0.428,-0.267L0.428,-0.72L0.322,-0.73L0.02,-0.232L0.02,-0.182L0.328,-0.182L0.328,-0L0.428,-0ZM0.329,-0.572L0.328,-0.267L0.139,-0.266L0.329,-0.572Z" style="fill-rule:nonzero;"/>
            </g>
        </g>
        <g transform="matrix(1,0,0,1,18.464,-57.25)">
            <g>
                <g transform="matrix(1,0,0,1,351,2064)">
                    <g transform="matrix(416.667,0,0,416.667,0,0)">
                        <path d="M0.25,-0.285C0.317,-0.285 0.374,-0.309 0.414,-0.35C0.453,-0.39 0.475,-0.444 0.475,-0.501C0.475,-0.561 0.452,-0.614 0.411,-0.653C0.371,-0.692 0.315,-0.713 0.252,-0.713L0.076,-0.713L0.076,-0L0.18,-0L0.18,-0.285L0.25,-0.285ZM0.18,-0.375L0.18,-0.624L0.246,-0.624C0.325,-0.624 0.375,-0.574 0.375,-0.501C0.375,-0.465 0.363,-0.435 0.34,-0.412C0.315,-0.387 0.284,-0.375 0.246,-0.375L0.18,-0.375Z" style="fill-rule:nonzero;"/>
                    </g>
                </g>
                <g transform="matrix(1,0,0,1,543.083,2064)">
                    <g transform="matrix(416.667,0,0,416.667,0,0)">
                        <path d="M0.092,-0.352C0.11,-0.363 0.131,-0.371 0.156,-0.377C0.183,-0.384 0.204,-0.387 0.221,-0.387C0.305,-0.387 0.345,-0.353 0.345,-0.284L0.345,-0.267L0.205,-0.267C0.153,-0.267 0.112,-0.253 0.082,-0.225C0.054,-0.2 0.04,-0.163 0.04,-0.126C0.04,-0.088 0.058,-0.055 0.095,-0.027C0.132,0.001 0.178,0.015 0.233,0.015C0.324,0.015 0.404,-0.019 0.443,-0.06L0.443,-0.277C0.443,-0.349 0.421,-0.401 0.377,-0.434C0.341,-0.459 0.294,-0.472 0.237,-0.472C0.206,-0.472 0.171,-0.467 0.133,-0.456C0.099,-0.447 0.075,-0.436 0.061,-0.424L0.092,-0.352ZM0.345,-0.101C0.339,-0.094 0.328,-0.086 0.312,-0.079C0.291,-0.07 0.267,-0.065 0.238,-0.065C0.21,-0.065 0.186,-0.072 0.167,-0.086C0.148,-0.098 0.138,-0.115 0.138,-0.132C0.138,-0.145 0.146,-0.161 0.159,-0.173C0.176,-0.187 0.197,-0.194 0.223,-0.194L0.345,-0.194L0.345,-0.101Z" style="fill-rule:nonzero;"/>
                    </g>
                    <g transform="matrix(416.667,0,0,416.667,213.75,0)">
                        <path d="M0.49,-0.391L0.486,-0.395C0.465,-0.415 0.44,-0.432 0.411,-0.445C0.37,-0.463 0.329,-0.472 0.288,-0.472C0.213,-0.472 0.149,-0.448 0.104,-0.404C0.057,-0.359 0.031,-0.298 0.031,-0.23C0.031,-0.162 0.051,-0.102 0.09,-0.059C0.129,-0.015 0.184,0.01 0.251,0.01C0.3,0.01 0.347,-0.006 0.392,-0.037L0.392,0.014C0.392,0.094 0.337,0.141 0.248,0.141C0.221,0.141 0.192,0.135 0.159,0.123C0.126,0.111 0.102,0.098 0.087,0.085L0.048,0.156C0.065,0.17 0.093,0.184 0.134,0.199C0.179,0.216 0.221,0.224 0.26,0.224C0.317,0.224 0.373,0.208 0.416,0.175C0.465,0.137 0.49,0.082 0.49,0.01L0.49,-0.391ZM0.265,-0.075C0.224,-0.075 0.191,-0.09 0.166,-0.119C0.141,-0.147 0.129,-0.183 0.129,-0.228C0.129,-0.277 0.144,-0.316 0.174,-0.346C0.203,-0.373 0.24,-0.387 0.285,-0.387C0.302,-0.387 0.315,-0.386 0.326,-0.383C0.343,-0.378 0.361,-0.37 0.378,-0.359C0.379,-0.358 0.384,-0.354 0.392,-0.348L0.392,-0.13C0.364,-0.095 0.314,-0.075 0.265,-0.075Z" style="fill-rule:nonzero;"/>
                    </g>
                    <g transform="matrix(416.667,0,0,416.667,445.834,0)">
                        <path d="M0.389,-0.097C0.37,-0.085 0.332,-0.07 0.291,-0.07C0.25,-0.07 0.214,-0.081 0.183,-0.103C0.15,-0.126 0.13,-0.157 0.122,-0.196L0.336,-0.196C0.373,-0.196 0.403,-0.203 0.428,-0.216C0.459,-0.233 0.475,-0.262 0.475,-0.302C0.475,-0.349 0.453,-0.391 0.414,-0.423C0.377,-0.454 0.326,-0.472 0.271,-0.472C0.206,-0.472 0.146,-0.447 0.102,-0.403C0.057,-0.358 0.031,-0.297 0.031,-0.229C0.031,-0.161 0.059,-0.1 0.106,-0.055C0.153,-0.011 0.215,0.015 0.286,0.015C0.319,0.015 0.35,0.009 0.38,-0.003C0.399,-0.01 0.416,-0.02 0.433,-0.033L0.389,-0.097ZM0.274,-0.387C0.307,-0.387 0.334,-0.381 0.354,-0.37C0.377,-0.357 0.389,-0.339 0.389,-0.316C0.389,-0.298 0.381,-0.286 0.365,-0.28C0.356,-0.277 0.341,-0.275 0.322,-0.275L0.125,-0.275C0.142,-0.344 0.201,-0.387 0.274,-0.387Z" style="fill-rule:nonzero;"/>
                    </g>
                    <g transform="matrix(416.667,0,0,416.667,761.667,0)">
                        <path d="M0.513,-0.277C0.513,-0.332 0.49,-0.38 0.453,-0.416C0.416,-0.452 0.362,-0.472 0.302,-0.472C0.261,-0.472 0.218,-0.463 0.172,-0.444C0.129,-0.427 0.094,-0.406 0.066,-0.383L0.066,-0L0.165,-0L0.165,-0.339C0.183,-0.353 0.199,-0.363 0.214,-0.369C0.241,-0.381 0.269,-0.387 0.298,-0.387C0.339,-0.387 0.371,-0.372 0.392,-0.341C0.407,-0.319 0.415,-0.293 0.415,-0.262L0.415,-0L0.513,-0L0.513,-0.277Z" style="fill-rule:nonzero;"/>
                    </g>
                    <g transform="matrix(416.667,0,0,416.667,1003.33,0)">
                        <path d="M0.031,-0.229C0.031,-0.162 0.058,-0.101 0.103,-0.057C0.15,-0.012 0.211,0.015 0.282,0.015C0.353,0.015 0.416,-0.012 0.463,-0.057C0.508,-0.101 0.535,-0.162 0.535,-0.229C0.535,-0.296 0.508,-0.356 0.463,-0.401C0.418,-0.446 0.354,-0.472 0.283,-0.472C0.212,-0.472 0.148,-0.446 0.103,-0.401C0.058,-0.356 0.031,-0.296 0.031,-0.229ZM0.127,-0.23C0.127,-0.274 0.145,-0.316 0.173,-0.344C0.201,-0.372 0.24,-0.389 0.283,-0.389C0.326,-0.389 0.365,-0.372 0.393,-0.344C0.421,-0.316 0.439,-0.274 0.439,-0.23C0.439,-0.185 0.422,-0.144 0.393,-0.115C0.365,-0.086 0.326,-0.068 0.283,-0.068C0.24,-0.068 0.201,-0.086 0.173,-0.115C0.144,-0.144 0.127,-0.185 0.127,-0.23Z" style="fill-rule:nonzero;"/>
                    </g>
                    <g transform="matrix(416.667,0,0,416.667,1239.17,0)">
                        <path d="M0.066,-0.693L0.066,-0.146C0.066,-0.087 0.079,-0.044 0.104,-0.019C0.126,0.004 0.159,0.015 0.202,0.015C0.247,0.015 0.285,-0.004 0.302,-0.02L0.271,-0.085C0.256,-0.075 0.239,-0.07 0.219,-0.07C0.182,-0.07 0.165,-0.095 0.165,-0.143L0.165,-0.376L0.28,-0.376L0.28,-0.457L0.165,-0.457L0.165,-0.693L0.066,-0.693Z" style="fill-rule:nonzero;"/>
                    </g>
                    <g transform="matrix(416.667,0,0,416.667,1487.08,0)">
                        <path d="M0.105,0.221L0.204,0.221L0.204,-0.376L0.323,-0.376L0.323,-0.457L0.204,-0.457L0.204,-0.611C0.204,-0.666 0.225,-0.694 0.265,-0.694C0.292,-0.694 0.316,-0.688 0.325,-0.68L0.354,-0.752C0.339,-0.765 0.297,-0.779 0.246,-0.779C0.2,-0.779 0.164,-0.76 0.138,-0.723C0.116,-0.692 0.105,-0.654 0.105,-0.609L0.105,-0.457L0.031,-0.457L0.031,-0.376L0.105,-0.376L0.105,0.221Z" style="fill-rule:nonzero;"/>
                    </g>
                </g>
                <g transform="matrix(1,0,0,1,2165.58,2064)">
                    <g transform="matrix(416.667,0,0,416.667,0,0)">
                        <path d="M0.031,-0.229C0.031,-0.162 0.058,-0.101 0.103,-0.057C0.15,-0.012 0.211,0.015 0.282,0.015C0.353,0.015 0.416,-0.012 0.463,-0.057C0.508,-0.101 0.535,-0.162 0.535,-0.229C0.535,-0.296 0.508,-0.356 0.463,-0.401C0.418,-0.446 0.354,-0.472 0.283,-0.472C0.212,-0.472 0.148,-0.446 0.103,-0.401C0.058,-0.356 0.031,-0.296 0.031,-0.229ZM0.127,-0.23C0.127,-0.274 0.145,-0.316 0.173,-0.344C0.201,-0.372 0.24,-0.389 0.283,-0.389C0.326,-0.389 0.365,-0.372 0.393,-0.344C0.421,-0.316 0.439,-0.274 0.439,-0.23C0.439,-0.185 0.422,-0.144 0.393,-0.115C0.365,-0.086 0.326,-0.068 0.283,-0.068C0.24,-0.068 0.201,-0.086 0.173,-0.115C0.144,-0.144 0.127,-0.185 0.127,-0.23Z" style="fill-rule:nonzero;"/>
                    </g>
                    <g transform="matrix(416.667,0,0,416.667,235.834,0)">
                        <path d="M0.066,-0.183C0.066,-0.127 0.087,-0.078 0.124,-0.043C0.161,-0.006 0.212,0.015 0.271,0.015C0.32,0.015 0.368,0.005 0.413,-0.015C0.455,-0.034 0.488,-0.055 0.513,-0.078L0.513,-0.457L0.415,-0.457L0.415,-0.122C0.404,-0.111 0.387,-0.1 0.365,-0.09C0.336,-0.077 0.306,-0.07 0.275,-0.07C0.234,-0.07 0.204,-0.086 0.185,-0.119C0.172,-0.142 0.165,-0.168 0.165,-0.198L0.165,-0.457L0.066,-0.457L0.066,-0.183Z" style="fill-rule:nonzero;"/>
                    </g>
                    <g transform="matrix(416.667,0,0,416.667,477.5,0)">
                        <path d="M0.513,-0.277C0.513,-0.332 0.49,-0.38 0.453,-0.416C0.416,-0.452 0.362,-0.472 0.302,-0.472C0.261,-0.472 0.218,-0.463 0.172,-0.444C0.129,-0.427 0.094,-0.406 0.066,-0.383L0.066,-0L0.165,-0L0.165,-0.339C0.183,-0.353 0.199,-0.363 0.214,-0.369C0.241,-0.381 0.269,-0.387 0.298,-0.387C0.339,-0.387 0.371,-0.372 0.392,-0.341C0.407,-0.319 0.415,-0.293 0.415,-0.262L0.415,-0L0.513,-0L0.513,-0.277Z" style="fill-rule:nonzero;"/>
                    </g>
                    <g transform="matrix(416.667,0,0,416.667,719.167,0)">
                        <path d="M0.263,-0.472C0.195,-0.472 0.137,-0.446 0.096,-0.401C0.055,-0.356 0.031,-0.294 0.031,-0.227C0.031,-0.16 0.054,-0.1 0.097,-0.056C0.141,-0.011 0.202,0.015 0.277,0.015C0.321,0.015 0.364,0.006 0.405,-0.011C0.438,-0.025 0.465,-0.041 0.486,-0.059L0.49,-0.063L0.49,-0.777L0.392,-0.777L0.392,-0.431C0.353,-0.458 0.31,-0.472 0.263,-0.472ZM0.392,-0.106L0.388,-0.104C0.356,-0.081 0.319,-0.07 0.276,-0.07C0.232,-0.07 0.194,-0.087 0.169,-0.116C0.142,-0.146 0.129,-0.184 0.129,-0.231C0.129,-0.276 0.143,-0.313 0.171,-0.343C0.198,-0.372 0.234,-0.387 0.277,-0.387C0.324,-0.387 0.359,-0.373 0.392,-0.341L0.392,-0.106Z" style="fill-rule:nonzero;"/>
                    </g>
                </g>
            </g>
        </g>
    </g>
</svg>
